<svg id="Layer_1" data-name="Layer 1" xmlns="http://www.w3.org/2000/svg" viewBox="0 0 92.91 100"><defs><style>.cls-1{fill:#9c27b0;}.cls-2{fill:#7b1fa2;}.cls-3{fill:#fff;}</style></defs><title>PWA_eesign_solution</title><polygon class="cls-1" points="1.86 18.04 46.45 1.83 91.04 18.04 83.92 76.87 46.45 98.03 8.36 76.97 1.86 18.04"/><polyline class="cls-2" points="46.45 1.83 91.04 18.04 83.92 76.87 46.45 98.03"/><path d="M46.46,100,6.75,78,0,16.88,46.45,0,92.91,16.89l-1.18,9.75a1.72,1.72,0,0,1-3.41-.41l.85-7L46.45,3.66,3.72,19.19,10,75.9,46.44,96.06,82.31,75.8l4.53-37.41a1.72,1.72,0,0,1,3.41.41L85.52,77.94Z"/><path class="cls-3" d="M57.18,39.72h5.42c0,.07,0,.14-.07.2L54.65,59.46c-.09.22-.16.45-.24.68H49a2.43,2.43,0,0,0-.06-.31L45.67,49.37l-.34-1.09c-.06.16-.1.24-.13.32l-1.31,4-2.48,7.54H36a3.19,3.19,0,0,0-.14-.31q-1.23-2.12-2.46-4.23a.56.56,0,0,1-.05-.5q1.06-3.23,2.1-6.47L36,47l3,6c.06-.16.1-.26.14-.36l2.88-8.86q.65-2,1.29-4h4.17l0,.08,3.89,12.85c0,.08.06.15.11.28l.14-.3,4-9.3C56.17,42.13,56.67,40.92,57.18,39.72Z"/><path class="cls-3" d="M24.51,60.14H19.36V39.72h9.1c.48.07,1,.13,1.44.22a6,6,0,0,1,3.86,2.48.43.43,0,0,1,.06.42q-1.58,4.86-3.15,9.72a.35.35,0,0,1-.31.28,16.44,16.44,0,0,1-1.71.24c-1.27,0-2.55,0-3.82,0-.24,0-.33.05-.32.31,0,.58,0,1.16,0,1.73Q24.51,57.65,24.51,60.14Zm0-16.45a1,1,0,0,0,0,.16c0,1.71,0,3.41,0,5.12,0,.17.07.22.23.21.82,0,1.64,0,2.46,0a2.31,2.31,0,0,0,2.42-1.91,4.33,4.33,0,0,0,0-1.39,2.25,2.25,0,0,0-1.9-2,3.47,3.47,0,0,0-.7-.09Z"/><path class="cls-3" d="M67.85,60.14a1.75,1.75,0,0,0,0-.23c-.38-1.07-.77-2.14-1.14-3.21a.31.31,0,0,0-.36-.24h-7c0-.12.06-.2.09-.28.45-1.14.9-2.28,1.34-3.42a.32.32,0,0,1,.36-.24h4.26l-.11-.31q-1-2.72-1.95-5.45a.67.67,0,0,1,0-.51q1.24-3.1,2.46-6.21l.11-.27c.06.15.11.24.15.35l7.42,19.73a2.36,2.36,0,0,0,.12.23,1,1,0,0,1-.22.05Z"/></svg>